PathFileType	4	(X/Y/Z)	Formatted/subject02/trials/walk2/markers.trc
DataRate	CameraRate	NumFrames	NumMarkers	Units	OrigDataRate	OrigDataStartFrame	OrigNumFrames
200.00000000000426	200.00000000000426	4	64	m	200.00000000000426	29	235
Frame#	Time	CLAV			C7			RACR			RASH			RPSH			RLEL			RMEL			RUA1			RUA2			RUA3			RFAsuperior			RFAradius			RFAulna			RASI			RPSI			RCAL			RTOE			RMT5			RTH1			RTH2			RTH3			RTB1			RTB2			RTB3			RLFC			RMFC			RLMAL			RMMAL			RHJC			RKJC			REJC			RAJC			RSJC			LACR			LASH			LPSH			LLEL			LMEL			LUA1			LUA2			LUA3			LFAsuperior			LFAradius			LFAulna			LASI			LPSI			LCAL			LTOE			LMT5			LTH1			LTH2			LTH3			LTB1			LTB2			LTB3			LLFC			LMFC			LLMAL			LMMAL			LHJC			LKJC			LEJC			LAJC			LSJC			
		X1	Y1	Z1	X2	Y2	Z2	X3	Y3	Z3	X4	Y4	Z4	X5	Y5	Z5	X6	Y6	Z6	X7	Y7	Z7	X8	Y8	Z8	X9	Y9	Z9	X10	Y10	Z10	X11	Y11	Z11	X12	Y12	Z12	X13	Y13	Z13	X14	Y14	Z14	X15	Y15	Z15	X16	Y16	Z16	X17	Y17	Z17	X18	Y18	Z18	X19	Y19	Z19	X20	Y20	Z20	X21	Y21	Z21	X22	Y22	Z22	X23	Y23	Z23	X24	Y24	Z24	X25	Y25	Z25	X26	Y26	Z26	X27	Y27	Z27	X28	Y28	Z28	X29	Y29	Z29	X30	Y30	Z30	X31	Y31	Z31	X32	Y32	Z32	X33	Y33	Z33	X34	Y34	Z34	X35	Y35	Z35	X36	Y36	Z36	X37	Y37	Z37	X38	Y38	Z38	X39	Y39	Z39	X40	Y40	Z40	X41	Y41	Z41	X42	Y42	Z42	X43	Y43	Z43	X44	Y44	Z44	X45	Y45	Z45	X46	Y46	Z46	X47	Y47	Z47	X48	Y48	Z48	X49	Y49	Z49	X50	Y50	Z50	X51	Y51	Z51	X52	Y52	Z52	X53	Y53	Z53	X54	Y54	Z54	X55	Y55	Z55	X56	Y56	Z56	X57	Y57	Z57	X58	Y58	Z58	X59	Y59	Z59	X60	Y60	Z60	X61	Y61	Z61	X62	Y62	Z62	X63	Y63	Z63	X64	Y64	Z64	

30	3.225	1.142788861784099	1.458183739251682	-0.4336451586778334	1.018249305963069	1.544448845153247	-0.4765183944097842	1.066178814838003	1.50252531323545	-0.2996034987338079	1.116765137883691	1.452071150847423	-0.2671309650401794	1.017988152588835	1.471504459494175	-0.2782174337254735	0.9253231792423334	1.15260820519469	-0.224427356768195	0.9228542433757545	1.152380311543102	-0.2987001392922209	1.037437282053309	1.388173298761587	-0.2363576103182724	1.034776027852515	1.295835211710605	-0.2535230893563579	0.9608496422492144	1.286216828874147	-0.2381567799841986	0.983188065295631	1.056954673518125	-0.2527314799706316	1.024458381631246	0.8873741667667656	-0.2030076364240351	0.9530794143535893	0.8870711266341545	-0.1813708382756758	1.141395756773592	1.046243752156046	-0.3532351856128767	0.9588890276073129	1.059699827355056	-0.4439384537719326	1.151326951591422	0.0553397407668853	-0.4213468616402286	1.381313953644742	0.04106504652889763	-0.4622471517544223	1.324622283115779	0.007691871269591945	-0.3657248569009239	1.099813035257009	0.8706150713085157	-0.2946720751812404	1.182209285084997	0.7851110282646231	-0.3068198380202808	1.147803383892209	0.6557918104947813	-0.3366276084028363	1.271758343731286	0.3759301621491734	-0.4192664186124052	1.257303106553583	0.3088814445716621	-0.3502913538331725	1.266762685079233	0.210800618040714	-0.4206340641989806	1.23155487307334	0.5413131230930184	-0.3468432133182315	1.232121999901015	0.5443384134094522	-0.4628725945701481	1.232689232183417	0.06689220460088241	-0.3657264702820089	1.236547374745464	0.07110999852522965	-0.4703024536963175	1.072514189545529	0.9330125028814753	-0.3954631189046018	1.236449100438575	0.5418287654720348	-0.4073081426746474	0.9276587814911752	1.143149121583211	-0.2598579212297027	1.221207477776982	0.05578072625860558	-0.4259583217905608	1.070493059122316	1.461174684282994	-0.2723244212958054	1.106418469607677	1.506420989167334	-0.6444232176542	1.162779350366171	1.459719766262796	-0.6636961302384461	1.056100206247727	1.480707739601288	-0.6756695164185638	1.079857544337863	1.136609877765353	-0.7486794529134156	1.039398372600936	1.126928360089165	-0.6844110546694336	1.109102811192558	1.406028085460688	-0.7152747713663438	1.12955039786568	1.335850345217377	-0.7020449057915961	1.043038225769507	1.296672796792958	-0.715505477460981	1.138803892234943	1.07783801766562	-0.678462671193436	1.275484792112103	0.9392742107809783	-0.7004826589806122	1.229353758955029	0.9064180799822625	-0.746838458276424	1.145437638170456	1.030577852097176	-0.6151078436206974	0.959938431871258	1.060040613167288	-0.5264645800873867	0.5811973652630971	0.2392941044087087	-0.5588395500160858	0.7025633925531303	0.04004948661512091	-0.5406674614002056	0.6369794904992483	0.07664882442097606	-0.6275376456716447	1.049177132722959	0.8208992221257364	-0.6614361035002714	1.072286628373886	0.6884559223697591	-0.6583814940454366	0.9770864941200345	0.5980758699550111	-0.6396004836770219	0.9024030626470704	0.3678721976863618	-0.5838273981628044	0.8184696625907988	0.3310977461082223	-0.6357647965037125	0.7466523152024868	0.2418498591819982	-0.5705378534756445	0.9684726078549255	0.5207541972153309	-0.645459070294395	0.9864287991627955	0.5074251336774411	-0.5315634927377659	0.630265609983063	0.1876838845565181	-0.6205063112412423	0.6481153128379376	0.177260765458503	-0.5178342212997769	1.073629547639036	0.9232318224492815	-0.5557929252664993	0.9814009333134495	0.5084457026905461	-0.5869839354692218	1.068163141684675	1.126752225946608	-0.7173408880803689	0.6214252092066458	0.1821619698636522	-0.5590691291477752	1.116507271604796	1.468823299698367	-0.668889586494072	
31	3.23	1.149319131002341	1.458881509980443	-0.4333663654471704	1.024582836301196	1.544882020549699	-0.4761992122880185	1.072774030032069	1.503232435802403	-0.2992907003428104	1.123483336762889	1.452901935809147	-0.2668180809943147	1.024660660748934	1.472150074563637	-0.2778200788464675	0.9330313714303685	1.153061320251416	-0.222909462430959	0.9304102101782571	1.152617330847928	-0.2971760510882481	1.044424067122403	1.388921575156572	-0.2357322471751896	1.042000357404036	1.296528145498376	-0.2526330770944588	0.9681345110975484	1.286735013176374	-0.2370870631607303	0.9916067492528358	1.057819663667077	-0.2509795865638839	1.0344000816828	0.888768338333043	-0.2007438622247132	0.9630661798681288	0.8879381444683035	-0.1789726641157108	1.148495580569219	1.047323258607223	-0.3521833194725123	0.9660278362277819	1.060178583425459	-0.4430520044208169	1.151680034344245	0.05548975000949857	-0.421160075152184	1.381637063965568	0.04077285235456165	-0.4620721661723055	1.324872115505107	0.007407625665782186	-0.3655901988813863	1.106820720889224	0.8711563973368162	-0.2933675476989147	1.188677521618495	0.7851602606679641	-0.3056874566661967	1.153448774463314	0.6560904134617309	-0.3356146886248473	1.275099937329701	0.3754433690435593	-0.4187406585549746	1.26012793351382	0.3084415516606113	-0.3498302853077546	1.268565579474576	0.2103693941412377	-0.4203149439975785	1.23648384270676	0.5411095970040964	-0.3460372450107499	1.236967647838021	0.5442665251218982	-0.4620634966329323	1.233239185043056	0.06671228502254878	-0.36554126074646	1.236974802328658	0.07103129749522619	-0.470117561366837	1.07981854445576	0.9338383224916994	-0.3940619351574999	1.241354710592622	0.5416474874172664	-0.4065119906853566	0.9353219656186136	1.143509591448541	-0.2583181033796862	1.221561450891238	0.05578721268371667	-0.4257695339312323	1.077189854184152	1.461918726408688	-0.2719719668881557	1.112639923800986	1.506828742272108	-0.6441570828115403	1.169062140039503	1.460205787094025	-0.6634400241154231	1.062333649944431	1.480993776948873	-0.6753221817957481	1.085299561349012	1.136754276985541	-0.7469283141066139	1.045049311105589	1.127395581286498	-0.6824811609875338	1.115100029605087	1.40625514545235	-0.7147018807360953	1.135479360752223	1.336097226284431	-0.7012632197328043	1.048857027423714	1.297008469471818	-0.7142656683707097	1.144076701315895	1.077595688467144	-0.6768282999687717	1.279436789322628	0.9377853877964201	-0.6991263544335182	1.232813835441725	0.9052290362994109	-0.7452006621133661	1.152734295219094	1.030752780427983	-0.6139971823464827	0.967131037702843	1.060233913097517	-0.5255781141924892	0.5911916821686042	0.2468666357821441	-0.5605119734310148	0.704811421271556	0.0432790932091844	-0.540486427250652	0.6407854581628498	0.08163187333380287	-0.627761446336925	1.058531862679777	0.8215661946781919	-0.6608089548969107	1.083766846523909	0.689493587663193	-0.6586574100887431	0.9899884328258574	0.5974560291264663	-0.640795642825165	0.9138529410914322	0.3682162226909418	-0.585302813402677	0.8292380391917877	0.3329697590132814	-0.6371937996626638	0.7556045157196075	0.2453732765280223	-0.5717535117601951	0.982638307525658	0.520050666805012	-0.6472414702320559	1.000510100390981	0.5061774218400572	-0.5333976147897821	0.6381937175439711	0.1933935339037579	-0.621648156351661	0.6557585507985373	0.1829267272019454	-0.5189313906953513	1.081054709707923	0.9235016980159034	-0.5543559731980729	0.995647554814145	0.5071723054475146	-0.5888221652820577	1.073698607427838	1.127040890524407	-0.715510071155026	0.6292010581867268	0.188235553269271	-0.5602014405337459	1.122768657460766	1.469222577693565	-0.668593910009264	
32	3.235	1.1558231900327	1.459555507750678	-0.4331049538052252	1.030906128070932	1.545319208712886	-0.4758857793061404	1.07936756929358	1.50393698407942	-0.2989883489672414	1.130191371115253	1.453719296647939	-0.2665200711646022	1.031326711731533	1.472805056561072	-0.2774273618588758	0.9406860190749293	1.153544144393375	-0.2213795872949819	0.9378939699613313	1.15288745938031	-0.2956383714907377	1.051397920093177	1.389673560036416	-0.2351124073645034	1.049189816967623	1.297227403230401	-0.2517524385287598	0.9753874843826703	1.287274158691075	-0.2360077293019121	0.9999622284823786	1.058724314655069	-0.2492396832438383	1.044296707928551	0.8902172896084889	-0.1985141044918514	0.9730196764882395	0.8888581435873034	-0.1765838206767794	1.155492661517176	1.048341439524933	-0.3511668860501148	0.9730529156083659	1.060654743493316	-0.4421667578279346	1.152008752260848	0.05559853299804249	-0.4209909114409658	1.381942668436524	0.0404929981135793	-0.4618912628876006	1.325103016161723	0.007128932129844126	-0.3654528847990451	1.113687952927755	0.8716626379680554	-0.2921280260816875	1.194980401554599	0.7851571253302067	-0.3046174449663466	1.158897753596402	0.6563495438798027	-0.3346570650354028	1.278275977803914	0.3749285586317488	-0.418246618190372	1.262807076367255	0.3079768967032258	-0.3493972752356016	1.270273803691297	0.2099211825431007	-0.420014227620288	1.241184202125483	0.5408502799139294	-0.345282544078139	1.241584850900131	0.5441342108998448	-0.4613055875043442	1.233750641075049	0.06651555202872167	-0.3653666361816481	1.237376539661953	0.07093091928697082	-0.4699427747032983	1.086998706421121	0.93462939514975	-0.3927280884566962	1.246025301750628	0.541410430716732	-0.4057658421340191	0.9429208686984744	1.143900817388717	-0.2567669563711955	1.221891173301532	0.05576929048201995	-0.4255915683795975	1.08387822142695	1.462660020879246	-0.2716295914903347	1.118824494058316	1.507215719075117	-0.6439049267773329	1.17529500877735	1.460657501103348	-0.663202894721994	1.068521176642933	1.481270121809531	-0.6749827686718095	1.090709226917081	1.136884643704192	-0.7452036449095175	1.050666971609636	1.127845253335281	-0.6805815853117967	1.121052984569336	1.406461950744275	-0.7141446539248107	1.141366110391464	1.33632470512937	-0.7004994325478217	1.05463679489935	1.29732510931398	-0.7130485588726996	1.149312556379054	1.077340699558854	-0.6752202908976439	1.283334390585082	0.9362893948481583	-0.6977847369844414	1.236221027049962	0.904037142500832	-0.7435731730189576	1.159887849740918	1.030965784776998	-0.6129259645641566	0.9741979157782344	1.060455911183583	-0.5246920772713448	0.6014789030179424	0.2544194871794289	-0.5622829329578268	0.7076133032681836	0.04702983460740341	-0.5402971149353509	0.6451937182825861	0.08693824371445204	-0.6280370884056242	1.067936711071169	0.8222111257525593	-0.6602014160197329	1.095368974686321	0.6905670471189284	-0.6588177426245165	1.00307368213553	0.5968591184396943	-0.6419432392980823	0.9255318742162628	0.3686879113700074	-0.5866661738001933	0.8403194161127188	0.3349334894359286	-0.6385713302314105	0.7648659470833402	0.2490441379753734	-0.5729415799607119	0.9970450173261391	0.5193863996038939	-0.648928665971431	1.014697138888911	0.5050562395484068	-0.5351071370537555	0.6465302576616929	0.199214769715393	-0.622845120900691	0.6637220898912826	0.1887720794627885	-0.5200628146336838	1.088330946144277	0.9237978679800973	-0.552988675308018	1.010061480661043	0.5059877276405939	-0.5905447938001422	1.079201353610438	1.12731399546921	-0.7137074619199859	0.637340095859232	0.1944561645045858	-0.561395400202863	1.128981859089046	1.469598225334655	-0.6683124150477264	
33	3.24	1.16230586866315	1.460211729669588	-0.4328613749072105	1.037224688811681	1.545767659836109	-0.4755786438126653	1.085964631436504	1.50464576019469	-0.2986970223131253	1.136894028444328	1.454529514734932	-0.2662374707530583	1.037991193555236	1.473476636615611	-0.277039874196259	0.9482982151437374	1.154059626727538	-0.2198421934887367	0.9453166380371433	1.153194382159176	-0.2940914719598795	1.058365150139535	1.3904348504925	-0.2344996051550323	1.056352582635629	1.29793853456236	-0.2508837247882913	0.9826169523765016	1.287838272708113	-0.234921620251535	1.008262331561805	1.059669477119195	-0.2475185383090564	1.054149572583842	0.8917192030567153	-0.1963295311760836	0.9829413111039966	0.8898318109870036	-0.1742157100396816	1.162386985828189	1.049284928995958	-0.3501910768461355	0.9799633394627779	1.061137340532813	-0.4412843729385317	1.152311098143233	0.05566591417025208	-0.4208433106007311	1.382231525723933	0.04023674353000861	-0.4616986580469257	1.325313460891715	0.006864759973086866	-0.365309279237482	1.120403926813746	0.8721319483251724	-0.290963800098415	1.201113835088984	0.7851061068782176	-0.3036154850144169	1.164157440895351	0.6565712639368337	-0.3337609386502396	1.281299468286999	0.3743901752389266	-0.4177845764392237	1.265349053865592	0.3074923663136599	-0.3489927788705033	1.271892949423925	0.2094589229491065	-0.4197320923637467	1.245671865838747	0.5405437742404562	-0.3445803912232544	1.245994707825261	0.5439490887188371	-0.4606001780459988	1.234221330123829	0.0663053819057694	-0.3652033081591966	1.23775256350713	0.07081137649816915	-0.4697788203989797	1.09404397911889	0.9353807513706996	-0.3914737150807617	1.250480683246886	0.5411254644520385	-0.4050709841280457	0.9504667817955716	1.144326146155934	-0.2552089981695887	1.222194915473135	0.0557303221428806	-0.4254254389169977	1.090562995440533	1.463405293979936	-0.2712978566460256	1.124977377782394	1.507588252963121	-0.6436671543856658	1.181482770816668	1.461080656323562	-0.6629850805939022	1.074667709136448	1.481543547954696	-0.674651676312559	1.096098667238169	1.137007196773604	-0.7435109888725421	1.056262032106016	1.128282115741755	-0.6787188686931953	1.126968675297644	1.406655064791864	-0.7136044863012773	1.147218468494564	1.336539481306713	-0.6997553275702548	1.060386238193769	1.297628038734272	-0.7118584936409005	1.154520570747821	1.077075704413353	-0.673644098379961	1.287183884720351	0.9347866265559465	-0.6964638328231301	1.239582135049767	0.9028453681043253	-0.741964240693619	1.166891602912385	1.031221030136761	-0.6119016999107931	0.9811364867313056	1.060721211888335	-0.5238084874224259	0.6119956862923005	0.2617714039392513	-0.5641579358458673	0.7112253108104553	0.05120640192007232	-0.5401951178314823	0.6503987203408983	0.09242871609752205	-0.6284449640494701	1.077357715058631	0.8228353005080561	-0.6596092564301558	1.107030515684826	0.6916730553806845	-0.6588363175199858	1.016263967280687	0.596305437049111	-0.642999750610934	0.9374011965409649	0.3692773083679517	-0.5878884962145335	0.851693234603684	0.336944759957798	-0.639882927206361	0.7744469076524032	0.2527758414496397	-0.5741100685701479	1.011598682003597	0.51878327669727	-0.6504638591759624	1.028890964104438	0.5040906669181204	-0.5366333029721794	0.655309992622198	0.2050111946063545	-0.6241260532096152	0.6720364034477502	0.1946577941350268	-0.5212579549659797	1.095443449840504	0.9241262150256491	-0.5517045780092071	1.024544995838387	0.5049232639994361	-0.5920921341130851	1.084682889493173	1.127577173436285	-0.7119389652293855	0.6458735118107291	0.2006769830101598	-0.5626822658012612	1.135151737812872	1.469956435568566	-0.6680454664868696	
